<svg width="85" height="37" viewBox="0 0 85 37" fill="none" xmlns="http://www.w3.org/2000/svg">
<g clip-path="url(#clip0_4179_8846)">
<path d="M2.47411 19.3065C2.4733 19.3707 2.47249 19.4349 2.47168 19.4992C2.47244 19.4362 2.4733 19.3732 2.47411 19.3102V19.3065Z" fill="#FEFEFD"/>
<path d="M15.8574 9.88811C16.1313 9.87355 16.4264 9.85832 16.6738 9.9135C16.8131 9.94456 16.9057 9.99561 16.9853 10.1176C17.0366 10.3976 17.0822 10.6746 17.0927 10.9594C17.1152 11.5633 17.1102 12.1716 17.1045 12.7787C17.1018 13.0541 17.0986 13.3296 17.0986 13.6039V18.8344C17.0988 19.0061 17.1032 19.295 17.1094 19.6469C17.1306 20.8791 17.1655 22.8827 17.0547 23.3246C16.9752 23.6411 16.8134 23.787 16.539 23.9487C16.294 23.9798 16.0384 23.986 15.7851 23.9916C15.6526 23.9946 15.5203 23.9968 15.3906 24.0033C14.1693 24.0654 12.8796 24.1909 11.7578 24.7094C11.4575 24.8482 11.1565 25.0115 10.8926 25.2123C10.7573 25.3153 10.6054 25.4583 10.4443 25.6108C10.0426 25.9911 9.57843 26.4301 9.1406 26.4545C8.63585 26.4823 8.15742 26.0502 7.7158 25.6518C7.50573 25.4623 7.3034 25.2809 7.1113 25.1596C6.64531 24.8654 6.11828 24.6383 5.59568 24.4672C4.73364 24.1853 3.8203 24.0405 2.91599 23.9867C2.77945 23.9785 2.63846 23.9794 2.49705 23.9799C2.2347 23.9808 1.96907 23.9818 1.72165 23.9272C1.50615 23.8793 1.36709 23.7699 1.20505 23.6264C1.08639 23.3445 1.04974 22.9958 1.03513 22.6918C1.00898 22.1483 1.01561 21.5982 1.02244 21.0502C1.02549 20.8072 1.02815 20.5643 1.0283 20.3227L1.0322 15.6967L1.0283 12.1957C1.02819 12.043 1.02135 11.8771 1.01462 11.7055C0.996492 11.2405 0.976943 10.7338 1.0781 10.3373C1.13374 10.1194 1.25995 10.0231 1.44236 9.90667C3.44915 9.77657 5.64101 10.1933 7.40427 11.1742C7.98996 11.5001 8.51748 11.8991 9.05076 12.3022C9.35053 12.0786 9.65309 11.855 9.96189 11.644C11.6218 10.5097 13.5984 9.94973 15.6006 9.89983C15.6823 9.89779 15.7689 9.89281 15.8574 9.88811ZM15.626 11.4594C15.3829 11.4614 15.1254 11.446 14.8847 11.478C13.2376 11.6269 11.1243 12.2294 10.0058 13.5414C9.95847 13.5975 9.91321 13.6556 9.86912 13.7143L9.86619 24.0151C10.0491 23.8821 10.2302 23.7447 10.416 23.6157C11.9548 22.6964 13.8799 22.5386 15.6338 22.4125C15.6339 18.7638 15.6824 15.1074 15.626 11.4594ZM2.50095 11.4614C2.4632 12.9856 2.4715 14.516 2.47947 16.0434C2.48276 16.6695 2.48621 17.2953 2.4863 17.9203C2.4864 18.3797 2.48045 18.8425 2.47458 19.3061V19.31C2.46165 20.336 2.44891 21.3679 2.49998 22.3823C4.52641 22.5567 6.56099 22.7568 8.249 23.9955C8.23902 20.577 8.25777 17.1587 8.30564 13.7407C6.97861 12.3397 4.90215 11.5122 2.98728 11.4584C2.82524 11.455 2.66289 11.4561 2.50095 11.4614Z" fill="#010101"/>
<path d="M15.8574 9.88811L15.8704 10.1321L15.8704 10.1321L15.8574 9.88811ZM16.6738 9.9135L16.6206 10.152L16.6206 10.152L16.6738 9.9135ZM16.9853 10.1176L17.2257 10.0736L17.2168 10.0252L17.1899 9.98401L16.9853 10.1176ZM17.0927 10.9594L16.8486 10.9684L16.8486 10.9685L17.0927 10.9594ZM17.1045 12.7787L17.3488 12.7811V12.7811L17.1045 12.7787ZM17.0986 18.8344H16.8543V18.8347L17.0986 18.8344ZM17.1094 19.6469L17.3537 19.6427V19.6427L17.1094 19.6469ZM17.0547 23.3246L17.2917 23.3842L17.2917 23.3841L17.0547 23.3246ZM16.539 23.9487L16.5698 24.1911L16.6197 24.1847L16.6631 24.1592L16.539 23.9487ZM15.7851 23.9916L15.7797 23.7473H15.7797L15.7851 23.9916ZM15.3906 24.0033L15.3783 23.7593L15.3782 23.7593L15.3906 24.0033ZM11.7578 24.7094L11.8603 24.9312L11.8603 24.9312L11.7578 24.7094ZM10.8926 25.2123L11.0405 25.4068L11.0405 25.4068L10.8926 25.2123ZM10.4443 25.6108L10.2763 25.4333L10.2763 25.4333L10.4443 25.6108ZM9.1406 26.4545L9.15405 26.6985L9.15422 26.6985L9.1406 26.4545ZM7.7158 25.6518L7.87949 25.4704L7.87947 25.4703L7.7158 25.6518ZM7.1113 25.1596L7.24179 24.953L7.24175 24.953L7.1113 25.1596ZM5.59568 24.4672L5.67169 24.235L5.67163 24.235L5.59568 24.4672ZM2.91599 23.9867L2.90132 24.2307L2.90149 24.2307L2.91599 23.9867ZM2.49705 23.9799L2.49622 23.7356H2.49622L2.49705 23.9799ZM1.72165 23.9272L1.66862 24.1657L1.66899 24.1658L1.72165 23.9272ZM1.20505 23.6264L0.979835 23.7212L1.00141 23.7725L1.04304 23.8093L1.20505 23.6264ZM1.03513 22.6918L1.27921 22.6801L1.27921 22.6801L1.03513 22.6918ZM1.02244 21.0502L0.778099 21.0472L0.778099 21.0472L1.02244 21.0502ZM1.0283 20.3227L0.783939 20.3225L0.783939 20.3225L1.0283 20.3227ZM1.0322 15.6967L1.27656 15.6969L1.27656 15.6964L1.0322 15.6967ZM1.0283 12.1957L0.783939 12.1959L0.783939 12.196L1.0283 12.1957ZM1.01462 11.7055L0.770453 11.715L0.770455 11.7151L1.01462 11.7055ZM1.0781 10.3373L0.841342 10.2769L0.841328 10.2769L1.0781 10.3373ZM1.44236 9.90667L1.42655 9.66282L1.36387 9.66689L1.31092 9.70067L1.44236 9.90667ZM7.40427 11.1742L7.28548 11.3878L7.28548 11.3878L7.40427 11.1742ZM9.05076 12.3022L8.90342 12.4971L9.04978 12.6077L9.19684 12.4981L9.05076 12.3022ZM9.96189 11.644L10.0997 11.8457L10.0998 11.8457L9.96189 11.644ZM15.6006 9.89983L15.6066 10.1441L15.6067 10.1441L15.6006 9.89983ZM15.626 11.4594L15.8703 11.4556L15.8665 11.2131L15.6239 11.2151L15.626 11.4594ZM14.8847 11.478L14.9068 11.7215L14.9169 11.7202L14.8847 11.478ZM10.0058 13.5414L9.81988 13.3829L9.81918 13.3837L10.0058 13.5414ZM9.86912 13.7143L9.67375 13.5675L9.62478 13.6327L9.62476 13.7142L9.86912 13.7143ZM9.86619 24.0151L9.62183 24.015L9.62169 24.4949L10.0099 24.2127L9.86619 24.0151ZM10.416 23.6157L10.2907 23.4059L10.2835 23.4102L10.2766 23.415L10.416 23.6157ZM15.6338 22.4125L15.6513 22.6563L15.8781 22.6399L15.8781 22.4125L15.6338 22.4125ZM2.50095 11.4614L2.49299 11.2171L2.26238 11.2246L2.25667 11.4553L2.50095 11.4614ZM2.47947 16.0434L2.23511 16.0447V16.0447L2.47947 16.0434ZM2.4863 17.9203L2.24195 17.9204V17.9204L2.4863 17.9203ZM2.47458 19.3061L2.23023 19.303V19.3061H2.47458ZM2.47458 19.31L2.71894 19.3131V19.31H2.47458ZM2.49998 22.3823L2.25593 22.3945L2.26665 22.6074L2.47902 22.6257L2.49998 22.3823ZM8.249 23.9955L8.10443 24.1925L8.49477 24.479L8.49335 23.9948L8.249 23.9955ZM8.30564 13.7407L8.54997 13.7441L8.55136 13.6447L8.48304 13.5726L8.30564 13.7407ZM2.98728 11.4584L2.99414 11.2142L2.99251 11.2141L2.98728 11.4584ZM15.8574 9.88811L15.8704 10.1321C16.1529 10.1171 16.4122 10.1055 16.6206 10.152L16.6738 9.9135L16.727 9.67501C16.4405 9.61112 16.1097 9.63 15.8444 9.6441L15.8574 9.88811ZM16.6738 9.9135L16.6206 10.152C16.6745 10.164 16.703 10.1764 16.7215 10.1881C16.738 10.1985 16.7571 10.215 16.7807 10.2512L16.9853 10.1176L17.1899 9.98401C17.1339 9.89826 17.0669 9.82821 16.9824 9.77484C16.8999 9.72272 16.8125 9.69406 16.727 9.675L16.6738 9.9135ZM16.9853 10.1176L16.745 10.1616C16.796 10.4403 16.8387 10.7025 16.8486 10.9684L17.0927 10.9594L17.3369 10.9504C17.3257 10.6466 17.2772 10.3548 17.2257 10.0736L16.9853 10.1176ZM17.0927 10.9594L16.8486 10.9685C16.8708 11.5658 16.8659 12.1687 16.8601 12.7764L17.1045 12.7787L17.3488 12.7811C17.3546 12.1746 17.3597 11.5607 17.3369 10.9503L17.0927 10.9594ZM17.1045 12.7787L16.8601 12.7764C16.8575 13.051 16.8543 13.3281 16.8543 13.6039H17.0986H17.343C17.343 13.3311 17.3462 13.0572 17.3488 12.7811L17.1045 12.7787ZM17.0986 13.6039H16.8543V18.8344H17.0986H17.343V13.6039H17.0986ZM17.0986 18.8344L16.8543 18.8347C16.8544 19.0087 16.8589 19.2998 16.865 19.6511L17.1094 19.6469L17.3537 19.6427C17.3476 19.2902 17.3432 19.0034 17.343 18.8341L17.0986 18.8344ZM17.1094 19.6469L16.865 19.6511C16.8757 20.2677 16.8897 21.0741 16.8872 21.7813C16.886 22.135 16.8806 22.4616 16.8689 22.726C16.8567 22.9986 16.8384 23.1824 16.8177 23.2652L17.0547 23.3246L17.2917 23.3841C17.3263 23.2459 17.3453 23.0135 17.3571 22.7477C17.3693 22.4736 17.3747 22.1394 17.3759 21.783C17.3784 21.0698 17.3643 20.2582 17.3537 19.6427L17.1094 19.6469ZM17.0547 23.3246L16.8177 23.2651C16.786 23.3912 16.7419 23.4703 16.6865 23.5333C16.6274 23.6004 16.5448 23.6616 16.415 23.7381L16.539 23.9487L16.6631 24.1592C16.8076 24.0741 16.943 23.9815 17.0534 23.8561C17.1673 23.7267 17.2438 23.5746 17.2917 23.3842L17.0547 23.3246ZM16.539 23.9487L16.5083 23.7062C16.2779 23.7355 16.0348 23.7417 15.7797 23.7473L15.7851 23.9916L15.7905 24.2359C16.0419 24.2304 16.3101 24.224 16.5698 24.1911L16.539 23.9487ZM15.7851 23.9916L15.7797 23.7473C15.6491 23.7502 15.5124 23.7525 15.3783 23.7593L15.3906 24.0033L15.4029 24.2474C15.5282 24.2411 15.656 24.2389 15.7905 24.2359L15.7851 23.9916ZM15.3906 24.0033L15.3782 23.7593C14.1551 23.8215 12.8235 23.9477 11.6553 24.4876L11.7578 24.7094L11.8603 24.9312C12.9356 24.4342 14.1835 24.3094 15.403 24.2474L15.3906 24.0033ZM11.7578 24.7094L11.6553 24.4876C11.3463 24.6304 11.0279 24.8023 10.7446 25.0179L10.8926 25.2123L11.0405 25.4068C11.285 25.2207 11.5687 25.066 11.8603 24.9312L11.7578 24.7094ZM10.8926 25.2123L10.7446 25.0179C10.5967 25.1304 10.4348 25.2833 10.2763 25.4333L10.4443 25.6108L10.6123 25.7882C10.7761 25.6332 10.9178 25.5002 11.0405 25.4068L10.8926 25.2123ZM10.4443 25.6108L10.2763 25.4333C10.073 25.6258 9.86825 25.819 9.6625 25.9683C9.45302 26.1203 9.27461 26.2023 9.12698 26.2105L9.1406 26.4545L9.15422 26.6985C9.44442 26.6823 9.71701 26.5326 9.94951 26.3639C10.1857 26.1925 10.4139 25.9761 10.6123 25.7882L10.4443 25.6108ZM9.1406 26.4545L9.12715 26.2105C8.9493 26.2203 8.75616 26.1499 8.53752 26.008C8.31893 25.8662 8.1036 25.6726 7.87949 25.4704L7.7158 25.6518L7.5521 25.8332C7.76962 26.0295 8.01431 26.2511 8.27152 26.418C8.52869 26.5848 8.82714 26.7165 9.15405 26.6985L9.1406 26.4545ZM7.7158 25.6518L7.87947 25.4703C7.6736 25.2846 7.45506 25.0877 7.24179 24.953L7.1113 25.1596L6.98081 25.3662C7.15174 25.4742 7.33786 25.6399 7.55212 25.8332L7.7158 25.6518ZM7.1113 25.1596L7.24175 24.953C6.7544 24.6453 6.20784 24.4105 5.67169 24.235L5.59568 24.4672L5.51967 24.6994C6.02871 24.8661 6.53622 25.0855 6.98085 25.3662L7.1113 25.1596ZM5.59568 24.4672L5.67163 24.235C4.78516 23.9451 3.85034 23.7975 2.93049 23.7428L2.91599 23.9867L2.90149 24.2307C3.79026 24.2835 4.68211 24.4255 5.51973 24.6995L5.59568 24.4672ZM2.91599 23.9867L2.93067 23.7428C2.7848 23.7341 2.63539 23.7351 2.49622 23.7356L2.49705 23.9799L2.49787 24.2243C2.64152 24.2238 2.7741 24.223 2.90132 24.2307L2.91599 23.9867ZM2.49705 23.9799L2.49622 23.7356C2.22825 23.7365 1.99058 23.7363 1.77432 23.6886L1.72165 23.9272L1.66899 24.1658C1.94755 24.2273 2.24115 24.2251 2.49787 24.2243L2.49705 23.9799ZM1.72165 23.9272L1.77469 23.6886C1.62341 23.655 1.52371 23.5822 1.36706 23.4435L1.20505 23.6264L1.04304 23.8093C1.21047 23.9576 1.38888 24.1035 1.66862 24.1657L1.72165 23.9272ZM1.20505 23.6264L1.43027 23.5316C1.3294 23.292 1.29364 22.9802 1.27921 22.6801L1.03513 22.6918L0.791057 22.7036C0.80585 23.0113 0.843376 23.397 0.979835 23.7212L1.20505 23.6264ZM1.03513 22.6918L1.27921 22.6801C1.25347 22.1451 1.25993 21.6024 1.26677 21.0533L1.02244 21.0502L0.778099 21.0472C0.77129 21.5939 0.764493 22.1514 0.791057 22.7036L1.03513 22.6918ZM1.02244 21.0502L1.26677 21.0533C1.26983 20.8101 1.27251 20.566 1.27265 20.3228L1.0283 20.3227L0.783939 20.3225C0.783794 20.5626 0.781151 20.8042 0.778099 21.0472L1.02244 21.0502ZM1.0283 20.3227L1.27265 20.3229L1.27656 15.6969L1.0322 15.6967L0.787846 15.6965L0.783939 20.3225L1.0283 20.3227ZM1.0322 15.6967L1.27656 15.6964L1.27265 12.1955L1.0283 12.1957L0.783939 12.196L0.787846 15.697L1.0322 15.6967ZM1.0283 12.1957L1.27265 12.1956C1.27254 12.0371 1.26545 11.8659 1.25879 11.6959L1.01462 11.7055L0.770455 11.7151C0.777242 11.8883 0.78384 12.0489 0.783939 12.1959L1.0283 12.1957ZM1.01462 11.7055L1.25879 11.696C1.24023 11.22 1.22433 10.7527 1.31487 10.3977L1.0781 10.3373L0.841328 10.2769C0.729562 10.715 0.75275 11.261 0.770453 11.715L1.01462 11.7055ZM1.0781 10.3373L1.31486 10.3978C1.34617 10.2752 1.40181 10.2224 1.5738 10.1127L1.44236 9.90667L1.31092 9.70067C1.11808 9.82372 0.921314 9.9637 0.841342 10.2769L1.0781 10.3373ZM1.44236 9.90667L1.45817 10.1505C3.42432 10.0231 5.56835 10.4325 7.28548 11.3878L7.40427 11.1742L7.52307 10.9607C5.71366 9.95408 3.47398 9.5301 1.42655 9.66282L1.44236 9.90667ZM7.40427 11.1742L7.28548 11.3878C7.85376 11.7039 8.36785 12.0924 8.90342 12.4971L9.05076 12.3022L9.19809 12.1072C8.6671 11.7059 8.12615 11.2962 7.52306 10.9607L7.40427 11.1742ZM9.05076 12.3022L9.19684 12.4981C9.4965 12.2746 9.79551 12.0536 10.0997 11.8457L9.96189 11.644L9.82403 11.4422C9.51068 11.6563 9.20457 11.8826 8.90468 12.1063L9.05076 12.3022ZM9.96189 11.644L10.0998 11.8457C11.7158 10.7415 13.6451 10.193 15.6066 10.1441L15.6006 9.89983L15.5945 9.65555C13.5516 9.70646 11.5278 10.278 9.82403 11.4422L9.96189 11.644ZM15.6006 9.89983L15.6067 10.1441C15.6927 10.142 15.7838 10.1367 15.8704 10.1321L15.8574 9.88811L15.8444 9.6441C15.7541 9.6489 15.6718 9.65362 15.5945 9.65555L15.6006 9.89983ZM15.626 11.4594L15.6239 11.2151C15.4044 11.2169 15.1132 11.2011 14.8526 11.2357L14.8847 11.478L14.9169 11.7202C15.1376 11.6909 15.3613 11.7059 15.628 11.7037L15.626 11.4594ZM14.8847 11.478L14.8627 11.2346C14.0209 11.3107 13.0583 11.5027 12.16 11.8452C11.2636 12.187 10.4149 12.6849 9.81988 13.3829L10.0058 13.5414L10.1918 13.7C10.7152 13.0859 11.4825 12.6266 12.3341 12.3019C13.1838 11.9779 14.1015 11.7941 14.9067 11.7213L14.8847 11.478ZM10.0058 13.5414L9.81918 13.3837C9.76776 13.4446 9.71945 13.5067 9.67375 13.5675L9.86912 13.7143L10.0645 13.8611C10.107 13.8045 10.1492 13.7504 10.1925 13.6991L10.0058 13.5414ZM9.86912 13.7143L9.62476 13.7142L9.62183 24.015L9.86619 24.0151L10.1105 24.0151L10.1135 13.7144L9.86912 13.7143ZM9.86619 24.0151L10.0099 24.2127C10.1985 24.0756 10.3722 23.9436 10.5554 23.8163L10.416 23.6157L10.2766 23.415C10.0883 23.5458 9.89965 23.6887 9.72251 23.8174L9.86619 24.0151ZM10.416 23.6157L10.5413 23.8254C12.0221 22.9409 13.887 22.7831 15.6513 22.6563L15.6338 22.4125L15.6162 22.1688C13.8728 22.2941 11.8875 22.4519 10.2907 23.4059L10.416 23.6157ZM15.6338 22.4125L15.8781 22.4125C15.8782 18.7683 15.9268 15.106 15.8703 11.4556L15.626 11.4594L15.3816 11.4632C15.4381 15.1089 15.3895 18.7593 15.3894 22.4125L15.6338 22.4125ZM2.50095 11.4614L2.25667 11.4553C2.21881 12.9838 2.22715 14.5179 2.23511 16.0447L2.47947 16.0434L2.72382 16.0421C2.71585 14.514 2.70759 12.9873 2.74523 11.4674L2.50095 11.4614ZM2.47947 16.0434L2.23511 16.0447C2.23841 16.6709 2.24185 17.296 2.24195 17.9204L2.4863 17.9203L2.73066 17.9203C2.73056 17.2945 2.72711 16.668 2.72382 16.0421L2.47947 16.0434ZM2.4863 17.9203L2.24195 17.9204C2.24204 18.3779 2.23612 18.8391 2.23025 19.303L2.47458 19.3061L2.71892 19.3092C2.72479 18.846 2.73076 18.3815 2.73066 17.9203L2.4863 17.9203ZM2.47458 19.3061H2.23023V19.31H2.47458H2.71894V19.3061H2.47458ZM2.47458 19.31L2.23025 19.3069C2.21733 20.3316 2.20441 21.3712 2.25593 22.3945L2.49998 22.3823L2.74402 22.37C2.69341 21.3646 2.70597 20.3404 2.71892 19.3131L2.47458 19.31ZM2.49998 22.3823L2.47902 22.6257C4.5149 22.801 6.47983 23.0003 8.10443 24.1925L8.249 23.9955L8.39357 23.7985C6.64215 22.5133 4.53792 22.3124 2.52094 22.1388L2.49998 22.3823ZM8.249 23.9955L8.49335 23.9948C8.48338 20.5777 8.50212 17.1607 8.54997 13.7441L8.30564 13.7407L8.06131 13.7372C8.01342 17.1567 7.99466 20.5764 8.00464 23.9962L8.249 23.9955ZM8.30564 13.7407L8.48304 13.5726C7.10627 12.1192 4.96567 11.2695 2.99414 11.2142L2.98728 11.4584L2.98042 11.7027C4.83862 11.7548 6.85096 12.5603 8.12824 13.9087L8.30564 13.7407ZM2.98728 11.4584L2.99251 11.2141C2.82587 11.2106 2.65911 11.2117 2.49299 11.2171L2.50095 11.4614L2.50891 11.7056C2.66667 11.7004 2.82462 11.6994 2.98205 11.7027L2.98728 11.4584Z" fill="#010101"/>
<path d="M23.3605 11.0128C25.3179 10.9788 28.6145 10.9212 29.7003 11.337C30.5294 11.6547 31.2347 12.2797 31.5959 13.0968C31.9518 13.9023 31.9771 14.968 31.6544 15.7882C31.3097 16.6638 30.6773 17.0339 29.8595 17.3868C29.9226 17.4098 29.9869 17.4321 30.0509 17.4542C30.2261 17.5147 30.4026 17.576 30.5675 17.6573C31.3227 18.0367 31.8999 18.6963 32.175 19.4952C32.5073 20.475 32.3796 21.5726 31.9298 22.4903C31.5944 23.0682 31.1242 23.5155 30.5421 23.8409C30.03 24.1272 29.5235 24.2417 28.9455 24.3184C28.0668 24.4352 22.9695 24.512 22.3293 24.294C22.243 24.2647 22.1569 24.2318 22.1173 24.1466C22.023 23.9422 22.0101 23.6288 22.0002 23.3878L21.9972 23.3214C21.9358 21.9512 21.956 20.5626 21.9757 19.1798C21.9845 18.5647 21.9927 17.9506 21.9943 17.3399C21.9958 16.7515 21.9883 16.1589 21.9806 15.5655C21.9657 14.4085 21.9512 13.2472 22.0041 12.1026C22.0156 11.8545 22.0367 11.5779 22.1261 11.3448C22.1945 11.1668 22.2818 11.1055 22.4494 11.0264C22.695 11.0248 23.0058 11.0189 23.3605 11.0128ZM28.2541 18.4503C27.5406 18.2802 25.2885 18.398 24.4308 18.3985L24.4318 22.3087C25.4382 22.3107 27.6291 22.4377 28.4914 22.2169C28.8099 22.1353 29.0626 22.0074 29.3048 21.7852C29.6928 21.3278 29.8941 20.8663 29.8361 20.253C29.7844 19.7078 29.5514 19.244 29.1271 18.8936C28.8737 18.6815 28.5748 18.5299 28.2541 18.4503ZM25.1418 12.9962C24.8702 13.0049 24.6263 13.0125 24.4298 13.0128L24.4318 16.4932C24.6603 16.4939 24.9386 16.5011 25.2423 16.5089C26.2463 16.5346 27.5269 16.5676 28.1955 16.3966C28.5069 16.3168 28.7648 16.1909 29.0138 15.9884C29.3406 15.5925 29.5187 15.1405 29.4767 14.6202C29.4399 14.1627 29.2216 13.715 28.8566 13.4317C28.1693 12.8985 26.3674 12.9566 25.1418 12.9962Z" fill="#010101"/>
<path d="M43.5544 18.7976C43.178 15.9725 40.5822 13.9879 37.7575 14.3655C34.9349 14.7429 32.9522 17.3361 33.3279 20.1587C33.7037 22.9815 36.2959 24.9657 39.1189 24.5918C41.944 24.217 43.9302 21.6224 43.5544 18.7976ZM38.0878 16.5508C38.6611 16.5222 39.1668 16.532 39.6753 16.8419C40.246 17.1897 40.601 17.784 40.7556 18.4224C40.9747 19.3274 40.9234 20.5736 40.4144 21.3785C40.0497 21.9552 39.5415 22.2103 38.8981 22.352C38.2807 22.4141 37.6681 22.3559 37.1391 22.0011C36.5813 21.6268 36.2565 21.0159 36.1303 20.3688C35.951 19.45 36.0073 18.2561 36.5624 17.4695C36.9434 16.9296 37.4512 16.6635 38.0878 16.5508Z" fill="#010101"/>
<path d="M54.6245 18.7664C54.2345 15.942 51.6248 13.9716 48.8015 14.3697C45.9894 14.7661 44.0287 17.3631 44.4172 20.1763C44.8058 22.9888 47.3974 24.9574 50.2114 24.5767C53.0367 24.1945 55.0145 21.5906 54.6245 18.7664ZM49.1177 16.5514C49.6753 16.5055 50.2148 16.5228 50.7162 16.8037C51.3115 17.1372 51.6751 17.7226 51.8447 18.3689C52.0881 19.2976 52.0401 20.4954 51.5314 21.3326C51.1712 21.9259 50.6576 22.202 50.0008 22.3496C49.386 22.4293 48.7799 22.3608 48.2511 22.0134C47.6867 21.6424 47.3592 21.0384 47.2219 20.3899C47.0284 19.4735 47.091 18.2931 47.6256 17.4966C47.9882 16.956 48.4931 16.6801 49.1177 16.5514Z" fill="#010101"/>
<path d="M56.6816 10.5956C56.7202 10.592 56.7588 10.5892 56.7974 10.5879C57.1806 10.5744 58.0339 10.5002 58.2939 10.851C58.4048 11.0004 58.4209 11.3127 58.4346 11.4969C58.4928 12.2752 58.4459 13.0893 58.4459 13.871L58.4468 18.4736C58.9913 17.8265 59.6178 17.234 60.192 16.6115C60.7589 15.9966 61.3038 15.2896 61.9318 14.7419C62.0814 14.6115 62.1948 14.5424 62.3883 14.4896C62.7895 14.3804 64.243 14.2994 64.5489 14.5172C64.6271 14.5727 64.6936 14.6804 64.6877 14.7788C64.6603 15.2168 61.7662 18.0704 61.2618 18.5698C62.1899 19.9187 63.1258 21.2617 64.07 22.5993C64.305 22.9405 64.9731 23.6725 64.8871 24.0953C64.8685 24.1872 64.7957 24.2678 64.7146 24.3123C64.2806 24.5513 62.6136 24.3939 62.0931 24.2243C61.7212 23.8504 61.4182 23.3099 61.1191 22.8755L59.3079 20.2349L58.4424 20.9871C58.439 21.6796 58.6462 23.717 58.201 24.1813C58.0016 24.3895 57.7411 24.4056 57.4699 24.4081C57.0555 24.4125 56.254 24.4814 55.951 24.1852C55.8733 23.3876 55.8992 22.5803 55.8987 21.7798L55.8972 18.3612L55.8977 13.6771C55.8977 12.8446 55.8679 11.9997 55.9065 11.1684C55.9119 11.0566 55.9148 10.9601 55.9813 10.8645C56.1406 10.6339 56.4294 10.6299 56.6816 10.5956Z" fill="#010101"/>
<path d="M74.2885 14.3993C74.8349 14.3875 75.9228 14.2666 76.4144 14.4703C76.5987 14.5465 76.6823 14.7347 76.7648 14.9069C77.1148 15.6364 77.344 16.4769 77.6255 17.2387C78.1156 18.5642 78.6435 19.8752 79.1405 21.1977C79.4293 20.4514 81.4242 14.8906 81.7512 14.6132C81.9115 14.4774 82.2155 14.4483 82.4153 14.4424C82.8361 14.4301 83.622 14.3371 83.9406 14.6311C84.0212 14.8206 84.0105 14.9242 83.9641 15.1273C83.8008 15.8366 83.4534 16.5735 83.1987 17.2572L81.5621 21.6561L80.4556 24.6548C80.2332 25.2599 80.0373 25.9074 79.7489 26.4831C79.5881 26.8037 79.3927 27.1043 79.1473 27.3667C78.5594 27.9967 77.7902 28.2674 76.9432 28.2967C76.5801 28.3094 75.9575 28.3769 75.6775 28.1174C75.4986 27.7557 75.4834 26.9122 75.5988 26.5222C75.7112 26.1425 76.5425 26.2148 76.8777 26.0262C77.4173 25.7227 77.5644 25.125 77.7037 24.5693C77.2702 23.2591 74.0075 15.2469 74.0393 14.7938C74.053 14.5971 74.1458 14.5127 74.2885 14.3993Z" fill="#010101"/>
<path d="M68.9289 14.3607C69.2026 14.319 69.5031 14.3304 69.7812 14.3332C70.8872 14.3443 72.1246 14.5774 72.9212 15.4093C73.2872 15.7918 73.5541 16.3696 73.514 16.9084C73.5072 17.0003 73.4817 17.1321 73.4035 17.1874C73.0062 17.4682 71.9218 17.4131 71.4497 17.3496C71.0308 17.2932 71.0631 17.0132 70.8051 16.7066C70.5206 16.3693 70.1047 16.2036 69.6717 16.1721C69.1899 16.1371 68.5804 16.2939 68.2217 16.6322C68.0634 16.7816 67.8962 17.1665 67.9221 17.3819C68.0336 18.3214 70.6804 18.4422 71.4423 18.634C72.0884 18.7967 72.7536 19.0386 73.2696 19.4735C73.7593 19.886 73.9807 20.448 74.0306 21.0765C74.0917 21.8511 73.8659 22.593 73.3517 23.1794C72.4584 24.1984 71.1569 24.498 69.8618 24.5928C68.8663 24.6265 67.7951 24.4902 66.8998 24.0303C66.2503 23.6965 65.6638 23.1751 65.4473 22.4557C65.3584 22.162 65.2992 21.8179 65.4556 21.5393C65.9082 21.1845 67.1446 21.3233 67.6939 21.3434C67.8791 21.6253 67.9925 21.9562 68.2457 22.1898C68.6723 22.5832 69.3018 22.702 69.8653 22.6741C70.3261 22.6512 70.8168 22.5202 71.1257 22.1541C71.2962 21.9523 71.3949 21.6933 71.3695 21.4269C71.2674 20.3615 68.643 20.3654 67.8308 20.1778C67.2443 20.0429 66.6461 19.8049 66.1711 19.4286C65.6706 19.0313 65.351 18.4969 65.2904 17.8565C65.223 17.0751 65.4639 16.2983 65.9619 15.6924C66.714 14.7809 67.7956 14.4715 68.9289 14.3607Z" fill="#010101"/>
</g>
<defs>
<clipPath id="clip0_4179_8846">
<rect width="83" height="21" fill="white" transform="translate(1 8.43799)"/>
</clipPath>
</defs>
</svg>
