<svg xmlns="http://www.w3.org/2000/svg" aria-hidden="true" style="position:absolute;width:0;height:0;overflow:hidden">
  <defs>
    <symbol id="icon-location" viewBox="0 0 24 32">
      <path d="M12.191 19.565c3.362 0 6.095-2.734 6.095-6.095s-2.734-6.095-6.095-6.095c-3.362 0-6.095 2.734-6.095 6.095s2.734 6.095 6.095 6.095zm0-9.142c1.681 0 3.048 1.367 3.048 3.048s-1.367 3.048-3.048 3.048-3.048-1.367-3.048-3.048 1.367-3.048 3.048-3.048z"/>
      <path d="M11.307 31.472a1.522 1.522 0 0 0 1.768 0c.463-.328 11.351-8.189 11.307-18.002 0-6.722-5.469-12.19-12.191-12.19S.001 6.749.001 13.463c-.044 9.821 10.843 17.682 11.307 18.01zm.884-27.145c5.042 0 9.143 4.101 9.143 9.15.032 6.763-6.686 12.835-9.143 14.827-2.455-1.993-9.175-8.067-9.143-14.834 0-5.042 4.101-9.143 9.143-9.143z"/>
    </symbol>
    <symbol id="icon-email" viewBox="0 0 38 32">
      <path d="M33.882 1.581H3.764A3.769 3.769 0 0 0-.001 5.346v22.588a3.769 3.769 0 0 0 3.765 3.765h30.118a3.769 3.769 0 0 0 3.765-3.765V5.346a3.769 3.769 0 0 0-3.765-3.765zm0 3.765v.962L18.823 18.022 3.764 6.31v-.964h30.118zM3.765 27.934V11.076L17.668 21.89a1.873 1.873 0 0 0 2.312 0l13.903-10.814.004 16.858H3.766z"/>
    </symbol>
    <symbol id="icon-phone" viewBox="0 0 30 32">
      <path d="M23.532 17.813a1.606 1.606 0 0 0-1.743-.347c-.194.081-.37.198-.519.347l-2.55 2.55c-1.182-.352-3.389-1.152-4.787-2.55s-2.198-3.605-2.55-4.787l2.55-2.55a1.606 1.606 0 0 0 .347-1.743 1.609 1.609 0 0 0-.347-.519l-6.4-6.4a1.606 1.606 0 0 0-1.743-.347c-.194.081-.37.198-.519.347L.932 6.153a3.201 3.201 0 0 0-.938 2.296c.037 2.278.64 10.192 6.877 16.429s14.15 6.838 16.43 6.877h.045c.845 0 1.643-.333 2.248-.938l4.339-4.339a1.606 1.606 0 0 0 .347-1.743 1.598 1.598 0 0 0-.347-.519l-6.4-6.402zm-.204 10.739c-1.997-.034-8.829-.57-14.197-5.939-5.386-5.386-5.907-12.242-5.939-14.198L6.4 5.207l4.138 4.138-2.069 2.069a1.6 1.6 0 0 0-.435 1.46c.038.184.978 4.547 3.634 7.203s7.019 3.595 7.203 3.634a1.582 1.582 0 0 0 1.459-.433l2.07-2.069 4.138 4.138-3.21 3.208z"/>
    </symbol>
  </defs>
</svg>
