<svg xmlns="http://www.w3.org/2000/svg" aria-hidden="true" style="position:absolute;width:0;height:0;overflow:hidden"><defs><symbol id="icon-left-white" viewBox="0 0 32 32"><path fill="#fff" d="m19.902 27.904-9.813-9.813H32V13.52H10.089l9.813-9.813L16.67.475 1.34 15.805l15.33 15.33 3.232-3.232z" style="fill:var(--color1, #fff)"/></symbol><symbol id="icon-right-white" viewBox="0 0 32 32"><path fill="#fff" d="m12.098 27.904 3.232 3.232 15.33-15.33L15.33.476l-3.232 3.232 9.813 9.813H0v4.571h21.911l-9.813 9.813z" style="fill:var(--color1, #fff)"/></symbol><symbol id="icon-accord-up" viewBox="0 0 32 32"><path d="m.781 22.114 3.771 3.771L16 14.437l11.448 11.448 3.771-3.771L16 6.895.781 22.114z"/></symbol><symbol id="icon-accord-down" viewBox="0 0 32 32"><path d="M27.448 6.115 16 17.563 4.552 6.115.781 9.886 16 25.105 31.219 9.886l-3.771-3.771z"/></symbol><symbol id="icon-accord-left" viewBox="0 0 32 32"><path d="M22.114.781 6.895 16l15.219 15.219 3.771-3.771L14.437 16 25.885 4.552 22.114.781z"/></symbol><symbol id="icon-accord-right" viewBox="0 0 32 32"><path d="m9.885 31.866 15.219-15.219L9.885 1.428 6.114 5.199l11.448 11.448L6.114 28.095l3.771 3.771z"/></symbol><symbol id="icon-up" viewBox="0 0 32 32"><path d="M13.714 10.089V32h4.571V10.089l9.813 9.813 3.232-3.232L16 1.34.67 16.67l3.232 3.232 9.813-9.813z"/></symbol><symbol id="icon-down" viewBox="0 0 32 32"><path d="m31.33 15.33-3.232-3.232-9.813 9.813V0h-4.571v21.911l-9.813-9.813L.669 15.33l15.33 15.33 15.33-15.33z"/></symbol><symbol id="icon-left" viewBox="0 0 32 32"><path d="m19.902 28.098-9.813-9.813H32v-4.571H10.089l9.813-9.813L16.67.669 1.34 15.999l15.33 15.33 3.232-3.232z"/></symbol><symbol id="icon-right" viewBox="0 0 32 32"><path d="m12.098 28.098 3.232 3.232L30.66 16 15.33.67l-3.232 3.232 9.813 9.813H0v4.571h21.911l-9.813 9.813z"/></symbol><symbol id="icon-minus" viewBox="0 0 32 32"><path d="M0 13.714h32v4.571H0v-4.571z"/></symbol><symbol id="icon-plus" viewBox="0 0 32 32"><path d="M32 13.714H18.286V0h-4.571v13.714H.001v4.571h13.714v13.714h4.571V18.285H32v-4.571z"/></symbol><symbol id="icon-check" viewBox="0 0 32 32"><path d="m10.667 21.517-7.025-7.025-3.017 3.017 10.042 10.042L31.375 6.843l-3.017-3.017-17.692 17.692z"/></symbol><symbol id="icon-close" viewBox="0 0 32 32"><path d="M27.179.918 15.864 12.23 4.552.918.781 4.689l11.312 11.312L.781 27.313l3.771 3.771 11.312-11.312 11.315 11.312 3.771-3.771-11.312-11.312L30.95 4.689 27.179.918z"/></symbol><symbol id="icon-star" viewBox="0 0 32 32"><path d="M7.226 19.717 4.842 30.04a1.596 1.596 0 0 0 2.447 1.69l8.712-5.808 8.712 5.808a1.604 1.604 0 0 0 1.829-.04 1.606 1.606 0 0 0 .598-1.73l-2.926-10.24 7.258-6.531a1.604 1.604 0 0 0-.944-2.785l-9.122-.726L17.459.94a1.6 1.6 0 0 0-1.457-.945 1.591 1.591 0 0 0-1.457.945l-3.947 8.738-9.122.725a1.597 1.597 0 0 0-1.378 1.051 1.597 1.597 0 0 0 .388 1.69l6.742 6.571zm4.564-6.922a1.598 1.598 0 0 0 1.331-.937l2.878-6.37 2.878 6.37a1.597 1.597 0 0 0 1.331.937l6.355.504-5.234 4.71a1.605 1.605 0 0 0-.469 1.629l2.005 7.016-5.978-3.986a1.591 1.591 0 0 0-1.774 0l-6.246 4.165 1.68-7.274a1.6 1.6 0 0 0-.442-1.504l-4.861-4.739 6.544-.522z"/></symbol><symbol id="icon-burger" viewBox="0 0 32 32"><path d="M0 4h32v4H0V4zm8 10h24v4H8v-4zm10 10h14v4H18v-4z"/></symbol><symbol id="icon-mail" viewBox="0 0 32 32"><path d="M28.8 3.2H3.2A3.203 3.203 0 0 0 0 6.4v19.2c0 1.765 1.435 3.2 3.2 3.2h25.6c1.765 0 3.2-1.435 3.2-3.2V6.4c0-1.765-1.435-3.2-3.2-3.2zm0 3.2v.818L16 17.175 3.2 7.22v-.819h25.6zM3.2 25.6V11.27l11.818 9.192a1.59 1.59 0 0 0 1.964 0L28.8 11.27l.003 14.33H3.2z"/></symbol><symbol id="icon-phone" viewBox="0 0 32 32"><path d="M24.77 17.336a1.694 1.694 0 0 0-1.836-.365c-.205.084-.39.209-.546.365l-2.685 2.685c-1.245-.371-3.567-1.213-5.039-2.685s-2.314-3.795-2.685-5.039l2.685-2.685a1.694 1.694 0 0 0 .365-1.836 1.667 1.667 0 0 0-.365-.546L7.927.493A1.694 1.694 0 0 0 6.091.128c-.205.084-.39.209-.546.365L.977 5.061c-.64.64-1 1.519-.987 2.417.039 2.398.674 10.729 7.239 17.294s14.895 7.198 17.295 7.239h.047c.889 0 1.73-.35 2.366-.987l4.568-4.568a1.694 1.694 0 0 0 .365-1.836 1.667 1.667 0 0 0-.365-.546l-6.737-6.739zm-.214 11.304c-2.102-.035-9.293-.6-14.944-6.252C3.943 16.719 3.394 9.502 3.36 7.442l3.377-3.377 4.355 4.355-2.178 2.178c-.198.198-.344.442-.423.71s-.092.552-.035.826c.04.194 1.029 4.787 3.825 7.582s7.389 3.784 7.582 3.825a1.663 1.663 0 0 0 1.536-.457l2.179-2.178 4.355 4.355-3.379 3.377z"/></symbol><symbol id="icon-location" viewBox="0 0 26 32"><path d="M12.8 19.2c3.53 0 6.4-2.87 6.4-6.4s-2.87-6.4-6.4-6.4c-3.53 0-6.4 2.87-6.4 6.4s2.87 6.4 6.4 6.4zm0-9.6c1.765 0 3.2 1.435 3.2 3.2S14.565 16 12.8 16c-1.765 0-3.2-1.435-3.2-3.2s1.435-3.2 3.2-3.2z"/><path d="M11.872 31.702a1.6 1.6 0 0 0 1.856 0c.486-.344 11.918-8.598 11.872-18.902C25.6 5.742 19.858 0 12.8 0S0 5.742 0 12.792c-.046 10.312 11.386 18.566 11.872 18.91zM12.8 3.2c5.294 0 9.6 4.306 9.6 9.608.034 7.101-7.021 13.477-9.6 15.568-2.578-2.093-9.634-8.47-9.6-15.576 0-5.294 4.306-9.6 9.6-9.6z"/></symbol><symbol id="icon-book" viewBox="0 0 32 32"><path d="M28.191.69c.487-.026 1.012-.053 1.451.045.248.055.412.146.554.363.091.498.172.99.191 1.497.04 1.074.031 2.155.021 3.234-.005.489-.011.979-.011 1.467v9.299c0 .305.008.819.019 1.444.038 2.191.1 5.753-.097 6.538-.141.563-.429.822-.917 1.109-.436.055-.89.067-1.34.076-.236.005-.471.009-.701.021-2.171.11-4.464.333-6.458 1.255-.534.247-1.069.537-1.538.894-.241.183-.511.437-.797.708-.714.676-1.539 1.457-2.318 1.5-.897.049-1.748-.719-2.533-1.427-.373-.337-.733-.659-1.075-.875-.828-.523-1.765-.927-2.694-1.231-1.533-.501-3.156-.759-4.764-.854-.243-.015-.493-.013-.745-.012-.466.002-.939.003-1.378-.094-.383-.085-.63-.28-.918-.535-.211-.501-.276-1.121-.302-1.662-.046-.966-.035-1.944-.023-2.918.005-.432.01-.864.01-1.293l.007-8.224-.007-6.224c0-.271-.012-.566-.024-.872-.032-.827-.067-1.727.113-2.432.099-.387.323-.559.648-.766 3.568-.231 7.464.51 10.599 2.253 1.041.579 1.979 1.289 2.927 2.005a48.938 48.938 0 0 1 1.62-1.17C20.662 1.793 24.176.797 27.735.708c.145-.004.299-.012.457-.021zm-.411 2.793c-.432.004-.89-.024-1.318.033-2.928.265-6.685 1.336-8.674 3.668-.084.1-.165.203-.243.307l-.005 18.313c.325-.236.647-.481.977-.71 2.736-1.634 6.158-1.915 9.276-2.139 0-6.487.086-12.987-.014-19.472zm-23.334.004c-.067 2.71-.052 5.43-.038 8.146.006 1.113.012 2.226.012 3.337 0 .817-.01 1.64-.021 2.464v.007c-.023 1.824-.046 3.659.045 5.462 3.603.31 7.22.666 10.22 2.868-.018-6.078.016-12.155.101-18.231-2.359-2.491-6.051-3.962-9.455-4.057a16.63 16.63 0 0 0-.865.005z"/><path d="M28.191.69zm1.451.045zm.554.363.427-.078-.016-.086-.048-.073-.364.238zm.191 1.497zm.021 3.234zm-.01 10.766h-.434.434zm.019 1.444zm-.098 6.538zm-.916 1.11.055.431.089-.011.077-.045-.221-.374zm-1.341.076zm-.701.021-.022-.434.022.434zm-6.458 1.255zm-1.538.894zm-.797.708zm-2.318 1.5.024.434-.024-.434zm-2.533-1.427zm-1.075-.875zm-2.694-1.231.135-.413-.135.413zm-4.764-.854-.026.434.026-.434zm-.745-.012zm-1.378-.094-.094.424h.001l.094-.424zm-.919-.534-.4.169.038.091.074.065.288-.325zm-.302-1.662zm-.022-2.918zm.01-1.294zm.007-8.224h.434v-.001h-.434zm-.007-6.224zm-.024-.871zm.113-2.432zm.647-.766L2.536.29l-.111.007-.094.06.234.366zm10.599 2.253zm2.927 2.006-.262.347.26.197.261-.195-.26-.348zm1.62-1.17zM27.734.711l.011.434-.011-.434zm.046 2.772.434-.007-.007-.431-.431.004.004.434zm-1.318.033.039.433.018-.002-.057-.431zm-8.674 3.669-.331-.282-.001.001.332.28zm-.243.307-.347-.261-.087.116v.145h.434zm-.005 18.313h-.434v.853l.69-.502-.255-.351zm.977-.71-.223-.373-.013.008-.012.009.248.357zm9.276-2.139.031.433.403-.029v-.404h-.434zM4.446 3.487l-.014-.434-.41.013-.01.41.434.011zm-.038 8.146zm.012 3.337zm-.021 2.463-.434-.006v.006h.434zm0 .007.434.005v-.005h-.434zm.045 5.462-.434.022.019.378.378.033.037-.433zm10.221 2.868-.257.35.694.509-.003-.861-.434.001zm.101-18.231.434.006.002-.177-.121-.128-.315.299zM5.311 3.482l.012-.434H5.32l-.009.434zM28.191.69l.023.434c.502-.027.963-.047 1.334.035l.189-.848c-.509-.114-1.097-.08-1.569-.055l.023.434zm1.451.045-.095.424a.541.541 0 0 1 .179.064.358.358 0 0 1 .105.112l.727-.475a1.224 1.224 0 0 0-.369-.372 1.381 1.381 0 0 0-.454-.177l-.095.424zm.554.363-.427.078c.091.495.167.962.184 1.434l.868-.032c-.02-.54-.106-1.059-.198-1.559l-.427.078zm.191 1.497-.434.016c.039 1.062.031 2.134.02 3.214l.869.008a70.72 70.72 0 0 0-.021-3.255l-.434.016zm.021 3.234-.434-.004c-.005.488-.01.981-.01 1.471h.869c0-.485.006-.972.01-1.463l-.434-.004zm-.01 1.467h-.434v9.299h.869V7.296h-.434zm0 9.299h-.434c0 .309.008.827.019 1.452l.869-.015a99.941 99.941 0 0 1-.019-1.437h-.434zm.019 1.444-.434.007c.019 1.096.044 2.53.039 3.787a42.287 42.287 0 0 1-.033 1.679c-.022.485-.054.811-.091.959l.843.211c.061-.245.095-.659.116-1.131.022-.487.031-1.081.033-1.715.004-1.268-.021-2.711-.039-3.805l-.434.007zm-.098 6.538-.421-.106a1.083 1.083 0 0 1-.233.477c-.105.119-.252.228-.483.364l.441.748c.257-.151.498-.316.694-.539a1.95 1.95 0 0 0 .424-.839l-.421-.106zm-.916 1.11-.055-.431c-.41.052-.842.063-1.295.073l.019.869c.447-.01.924-.021 1.385-.08l-.055-.431zm-1.341.076-.01-.434c-.232.005-.475.009-.714.021l.022.434.022.434c.223-.011.45-.015.689-.02l-.01-.434zm-.701.021-.022-.434c-2.174.111-4.542.335-6.619 1.295l.364.789c1.912-.884 4.13-1.105 6.298-1.216l-.022-.434zm-6.458 1.255-.182-.394c-.549.254-1.115.559-1.619.943l.526.691c.435-.331.939-.606 1.457-.846l-.182-.394zm-1.538.894-.263-.346c-.263.2-.551.472-.832.738l.597.631c.291-.276.543-.512.761-.678l-.263-.346zm-.797.708-.299-.316c-.361.342-.725.686-1.091.951-.372.27-.69.416-.952.431l.024.434.024.434c.516-.029 1-.295 1.414-.595.42-.305.826-.689 1.178-1.023l-.299-.315zm-2.318 1.5-.024-.434c-.316.017-.66-.108-1.048-.36s-.771-.596-1.17-.956l-.582.645c.387.349.822.743 1.279 1.04s.988.531 1.569.499l-.024-.434zm-2.533-1.427.291-.323c-.366-.33-.755-.68-1.134-.92l-.464.735c.304.192.635.487 1.016.83l.291-.323zm-1.075-.875.232-.367c-.866-.547-1.838-.964-2.791-1.276l-.27.826c.905.296 1.807.686 2.598 1.185l.232-.367zm-2.694-1.231.135-.413c-1.576-.515-3.238-.778-4.873-.875l-.026.434-.026.434c1.58.094 3.166.346 4.655.833l.135-.413zm-4.764-.854.026-.434a12.582 12.582 0 0 0-.772-.013l.001.434.001.434c.255-.001.491-.002.717.011l.026-.434zm-.745-.012-.001-.434c-.476.002-.899.001-1.283-.084l-.187.848c.495.109 1.017.105 1.474.104l-.001-.434zm-1.378-.094.094-.424c-.269-.06-.446-.189-.725-.436l-.576.65c.298.264.615.523 1.112.634l.094-.424zm-.919-.534.4-.169c-.179-.426-.243-.98-.269-1.514l-.868.042c.026.547.093 1.233.336 1.809l.4-.169zm-.302-1.662.434-.021c-.046-.951-.034-1.916-.022-2.892l-.869-.011c-.012.972-.024 1.963.023 2.945l.434-.021zm-.022-2.918.434.006c.005-.432.01-.866.01-1.299h-.869c0 .427-.005.856-.01 1.288l.434.005zm.01-1.294h.434l.007-8.224-.869-.001-.007 8.224h.434zm.007-8.224h.434l-.007-6.224-.869.001.007 6.224h.434zm-.007-6.224h.434c0-.282-.013-.586-.025-.888l-.868.034c.012.308.024.594.024.855h.434zm-.024-.871.434-.017c-.033-.846-.061-1.677.1-2.308l-.842-.215c-.199.779-.157 1.75-.126 2.557l.434-.017zm.113-2.432.421.107c.056-.218.155-.312.46-.507L2.331.357c-.343.219-.693.468-.835 1.024l.421.107zm.647-.766.028.433c3.495-.227 7.307.501 10.36 2.2l.422-.759C10.157.807 6.176.054 2.536.29l.028.433zm10.599 2.253-.211.38c1.01.562 1.924 1.253 2.876 1.972l.524-.693c-.944-.713-1.906-1.442-2.978-2.038l-.211.38zm2.927 2.006.26.348c.533-.397 1.064-.79 1.605-1.16l-.49-.717c-.557.381-1.101.783-1.634 1.181l.26.348zm1.62-1.17.245.359c2.873-1.963 6.303-2.938 9.79-3.025l-.011-.434-.011-.434c-3.632.09-7.23 1.107-10.259 3.176l.245.359zM27.734.711l.011.434c.153-.004.315-.013.469-.021l-.046-.868c-.161.009-.307.017-.444.02l.011.434zm.046 2.772-.004-.434c-.39.003-.908-.025-1.371.037l.057.431.057.431c.392-.052.79-.025 1.264-.029l-.004-.434zm-1.318.033-.039-.433c-1.497.135-3.208.477-4.805 1.086-1.594.608-3.102 1.493-4.16 2.734l.661.564c.93-1.092 2.295-1.908 3.809-2.486 1.511-.576 3.142-.903 4.573-1.032l-.039-.433zm-8.674 3.669-.332-.28a8.222 8.222 0 0 0-.259.327l.695.522c.076-.101.151-.197.228-.288l-.332-.28zm-.243.307h-.434l-.005 18.312h.869l.005-18.313h-.434zm-.005 18.313.255.351c.335-.244.644-.478.97-.705l-.496-.714c-.335.233-.67.487-.985.715l.255.351zm.977-.71.223.373c2.633-1.572 5.948-1.853 9.084-2.078l-.031-.433-.031-.433c-3.099.223-6.629.503-9.468 2.199l.223.373zm9.276-2.139h.434c0-6.479.087-12.989-.014-19.479l-.869.013c.1 6.481.014 12.971.014 19.465h.434zM4.446 3.487l-.434-.011c-.067 2.717-.052 5.445-.038 8.159l.869-.005c-.014-2.717-.029-5.431.038-8.133l-.434-.011zm-.038 8.146-.434.002c.006 1.113.012 2.225.012 3.335h.869c0-1.113-.006-2.226-.012-3.339l-.434.002zm.012 3.337h-.434c0 .813-.01 1.633-.021 2.458l.869.011c.01-.823.021-1.649.021-2.469h-.434zm-.021 2.463h-.434v.007h.869v-.007H4.4zm0 .007-.434-.005c-.023 1.822-.046 3.67.046 5.489l.868-.044c-.09-1.787-.068-3.608-.045-5.435L4.4 17.44zm.045 5.462-.037.433c3.619.312 7.113.666 10.001 2.786l.514-.701c-3.114-2.285-6.854-2.642-10.44-2.951l-.037.433zm10.221 2.868.434-.001c-.018-6.075.016-12.149.101-18.224l-.869-.012c-.085 6.079-.118 12.159-.101 18.238l.434-.001zm.101-18.231.315-.299c-2.448-2.584-6.253-4.094-9.758-4.193l-.024.868c3.303.093 6.881 1.525 9.152 3.922l.315-.299zM5.311 3.482l.009-.434a17.52 17.52 0 0 0-.888.005l.028.868c.28-.009.561-.011.841-.005l.009-.434z"/></symbol></defs></svg>